<svg width="99" height="22" viewBox="0 0 99 22" fill="none" xmlns="http://www.w3.org/2000/svg">
<path d="M33.6305 17.4406C34.3434 17.8913 35.1839 18.0905 36.0207 18.007H40.0269C40.3947 17.9935 40.7468 18.1581 40.9749 18.4501C41.2029 18.7422 41.2796 19.1267 41.1812 19.4852L40.8649 21H34.8102C30.3538 21 28.2321 18.3836 29.2518 13.5C30.266 8.64445 33.4843 6 37.943 6H44L43.683 7.51712C43.4829 8.36975 42.7467 8.98407 41.8807 9.02101H37.8968C36.9853 8.94572 36.0721 9.14266 35.2704 9.5874C34.5767 10.1494 34.086 10.9272 33.8744 11.8001L33.8028 12.0156H41.0819C41.4996 11.9999 41.8995 12.1869 42.1582 12.5188C42.4168 12.8507 42.503 13.2876 42.3901 13.6945L42.1154 15.0101H33.1772L33.1641 15.1992C33.1041 15.876 33.0649 16.9551 33.6305 17.4406Z" fill="#2E2E2E"/>
<path d="M48.5445 13.6014L47.3443 19.1872C47.097 20.2126 46.186 20.9515 45.1143 20.9959H43L47.1194 1.82743C47.3691 0.791676 48.2891 0.0451968 49.3715 0H51.4677L48.7584 12.6029H48.9232L55.507 6.61702C55.9214 6.22999 56.4675 6.00808 57.0391 5.99439H61L52.934 13.1189L58.4373 20.9991H54.2831C53.7492 21.0177 53.2446 20.7598 52.9538 20.3196L48.7093 13.6045L48.5445 13.6014Z" fill="#2E2E2E"/>
<path fill-rule="evenodd" clip-rule="evenodd" d="M63.4273 4.5747H65.9504C66.7089 4.54262 67.3537 4.00416 67.5288 3.25676L68 1H65.8676C64.8815 1.04216 64.0433 1.74238 63.8157 2.71409L63.4273 4.5747ZM60 21H62.0986L62.0979 20.9992C63.1032 20.9566 63.958 20.2431 64.1904 19.2526L66.9449 6.05388H64.8486C63.842 6.09712 62.9864 6.81179 62.7538 7.80363L60 21Z" fill="#2E2E2E"/>
<path d="M82 6.00078L81.6421 7.7124C81.4501 8.53099 80.7432 9.12087 79.9116 9.15638H75.8718C73.6564 9.15638 71.8975 10.8019 71.334 13.5C70.7705 16.1981 71.8413 17.8436 74.0567 17.8436H78.0664C78.4352 17.8276 78.789 17.9916 79.0177 18.2844C79.2464 18.5771 79.3221 18.9631 79.2211 19.3218L78.8709 21H72.812C68.3542 21 66.2319 18.3836 67.2519 13.5C68.2664 8.64445 71.4856 6 75.9457 6L82 6.00078Z" fill="#2E2E2E"/>
<path d="M86.5399 13.6013L85.3242 19.2602C85.0874 20.2441 84.2137 20.9532 83.1859 20.9958H81L85.1111 1.86088C85.3658 0.804853 86.3044 0.0443577 87.4079 0H89.467L86.7592 12.6028H86.924L93.5607 6.56717C93.942 6.2095 94.4451 6.00395 94.972 5.99046H99L90.9282 13.1188L96.43 20.9989H92.3728C91.7819 21.0199 91.2232 20.7344 90.9013 20.2471L86.7038 13.6044L86.5399 13.6013Z" fill="#2E2E2E"/>
<path d="M30.614 0.0426076L20.5903 2.89502C20.1541 3.01984 19.7474 3.24334 19.3974 3.55068C19.0474 3.85801 18.762 4.24214 18.5603 4.67755L17.9321 6.0342L15.7638 10.722L14.6743 13.0805L13.6768 15.2379L12.2056 18.4184L3.11785 2.81508L10.6142 5.09123L14.021 11.7934L15.1163 9.44774L12.6093 4.51316C12.4064 4.11398 12.1318 3.76243 11.8015 3.47904C11.4712 3.19566 11.0918 2.98613 10.6856 2.86272L1.40479 0.0444131C1.18977 -0.0207056 0.9615 -0.0140838 0.750034 0.063405C0.538568 0.140894 0.353818 0.285619 0.2201 0.478529C0.0863822 0.671439 0.00996561 0.903489 0.000909715 1.14414C-0.00814618 1.38479 0.0505818 1.62276 0.169365 1.82672L11.5751 21.4088C11.6579 21.5511 11.7745 21.6671 11.9127 21.7447C12.0508 21.8224 12.2057 21.859 12.3614 21.8507C12.517 21.8425 12.6678 21.7897 12.7983 21.6978C12.9287 21.6059 13.0341 21.4781 13.1037 21.3277L15.8486 15.3926L18.9568 21.5086C19.0305 21.6535 19.1381 21.7751 19.2689 21.8612C19.3996 21.9473 19.549 21.9951 19.7022 21.9996C19.8554 22.0042 20.007 21.9655 20.142 21.8872C20.277 21.809 20.3906 21.694 20.4716 21.5538L23.5815 16.1515L22.4598 13.9942L19.7867 18.6368L16.9406 13.0333L20.5939 5.13481L28.9297 2.76111L26.0871 7.6975C26.4967 8.44365 26.6419 9.32446 26.4959 10.1771C26.4579 10.4503 26.4777 10.7292 26.5537 10.9929L31.8336 1.82288C31.9503 1.62037 32.008 1.38474 31.9991 1.14649C31.9903 0.908232 31.9153 0.67833 31.7839 0.48654C31.6525 0.294751 31.4708 0.149906 31.2622 0.0707578C31.0536 -0.00839018 30.8278 -0.0181967 30.614 0.0426076Z" fill="#2E2E2E"/>
<path d="M24.0978 12.323L25.8821 15.6368L25.6057 14.8444L25.0503 13.2524C24.9729 13.0307 24.8962 12.8087 24.819 12.5868C24.7654 12.4328 24.7107 12.2785 24.6437 12.1306C24.5825 11.9952 24.5809 11.9247 24.6975 11.8371C24.8369 11.7316 24.9663 11.6116 25.0838 11.4787C25.1015 11.4587 25.1232 11.4434 25.1473 11.4339C25.1714 11.4243 25.1971 11.4209 25.2226 11.4238C25.2481 11.4267 25.2726 11.4359 25.2943 11.4506C25.316 11.4653 25.3342 11.4852 25.3477 11.5088L26.7244 13.9506L25.8952 11.4216C25.7423 10.9778 25.7004 10.4983 25.7738 10.0315C25.8399 9.65576 25.8346 9.26946 25.7582 8.89597C25.6819 8.52248 25.5361 8.16956 25.3297 7.85857C24.9189 7.26408 24.309 6.86626 23.63 6.75001C22.9511 6.63375 22.2569 6.80827 21.6956 7.23632C21.1343 7.66437 20.7503 8.31205 20.6257 9.04112C20.5011 9.7702 20.6456 10.5229 21.0285 11.1387C21.2588 11.4934 21.5618 11.7861 21.914 11.994C22.2567 12.2045 22.5378 12.5144 22.7254 12.8884L25.0887 17.4317L23.3174 12.5793C23.3079 12.5536 23.3041 12.5258 23.3062 12.4982C23.3083 12.4706 23.3164 12.4439 23.3297 12.4202C23.343 12.3965 23.3612 12.3765 23.3829 12.3616C23.4046 12.3468 23.4292 12.3376 23.4548 12.3348C23.6068 12.3176 23.7571 12.2862 23.9041 12.2411C23.9402 12.2294 23.979 12.2311 24.0141 12.246C24.0492 12.2608 24.0787 12.288 24.0978 12.323Z" fill="#00A355"/>
</svg>
