<svg width="12" height="12" viewBox="0 0 12 12" fill="none" xmlns="http://www.w3.org/2000/svg">
<path d="M6 0C2.68661 0 0 2.68661 0 6C0 9.31339 2.68661 12 6 12C9.31339 12 12 9.31339 12 6C12 2.68661 9.31339 0 6 0ZM6.29866 8.90893L6.30134 9.33348C6.30134 9.39241 6.25313 9.44196 6.1942 9.44196H5.81384C5.75491 9.44196 5.7067 9.39375 5.7067 9.33482V8.91429C4.51741 8.82589 3.95759 8.14822 3.89732 7.41161C3.89196 7.34866 3.94152 7.29509 4.00446 7.29509H4.62321C4.67545 7.29509 4.72098 7.33259 4.72902 7.38348C4.79732 7.80804 5.12813 8.12545 5.72143 8.20446V6.2933L5.39063 6.20893C4.69018 6.04152 4.02321 5.60491 4.02321 4.69955C4.02321 3.72321 4.76518 3.19821 5.71339 3.1058V2.66384C5.71339 2.60491 5.76161 2.5567 5.82054 2.5567H6.19688C6.2558 2.5567 6.30402 2.60491 6.30402 2.66384V3.10179C7.22143 3.1942 7.90982 3.72991 7.99018 4.56429C7.99687 4.62723 7.94732 4.68214 7.88304 4.68214H7.2817C7.22813 4.68214 7.18259 4.64196 7.17589 4.58973C7.12232 4.19866 6.80893 3.87991 6.29866 3.81027V5.60893L6.63884 5.68795C7.5067 5.90223 8.09732 6.31741 8.09732 7.24688C8.09732 8.25536 7.34732 8.81786 6.29866 8.90893ZM4.85625 4.63795C4.85625 4.97813 5.06652 5.24196 5.5192 5.40536C5.58214 5.4308 5.64509 5.45089 5.72009 5.47232V3.81161C5.22589 3.87455 4.85625 4.15179 4.85625 4.63795ZM6.41652 6.44866C6.37902 6.44063 6.34152 6.43125 6.29866 6.4192V8.20982C6.8692 8.15893 7.26295 7.84554 7.26295 7.32054C7.26295 6.90938 7.05 6.64152 6.41652 6.44866Z" fill="#BDBDBD"/>
</svg>
